# xmcd CD database file
#
# Track frame offsets:
#	150
#	22032
#	43702
#	61937
#	87234
#	107334
#	142516
#	159632
#	188616
#	204406
#
# Disc length: 2987 seconds
#
# Revision: 0
# Processed by: cddbd v1.5.2PL0 Copyright (c) Steve Scherf et al.
# Submitted via: CDex 1.70beta2
#
DISCID=750ba90a
DTITLE=Anders Osborne - Coming Down
DYEAR=2007
DGENRE=Blues
TTITLE0=Coming Down
TTITLE1=Spotlight
TTITLE2=Summertime in New Orleans
TTITLE3=Back on Dumaine
TTITLE4=Oh Katrina
TTITLE5=When I'm Back on My Feet
TTITLE6=I've Got a Woman
TTITLE7=My Old Heart
TTITLE8=Miss You When I'm Gone
TTITLE9=Lucky One
EXTD=YEAR: 2007
EXTT0=
EXTT1=
EXTT2=
EXTT3=
EXTT4=
EXTT5=
EXTT6=
EXTT7=
EXTT8=
EXTT9=
PLAYORDER=
